<?xml version="1.0" ?>
<svg xmlns="http://www.w3.org/2000/svg" xmlns:ev="http://www.w3.org/2001/xml-events" xmlns:xlink="http://www.w3.org/1999/xlink" baseProfile="full" enable-background="new 0 0 1067.852 1359.568" height="100%" id="Layer_1" version="1.1" viewBox="0 0 1067.852 1359.568" width="100%" x="0px" xml:space="preserve" y="0px">
	<defs/>
	<path d="M 596.719,700.958 C 601.226,702.27 615.5110000000001,707.606 619.254,708.605 C 632.1510000000001,712.088 634.868,712.318 647.546,713.666 C 668.817,717.5540000000001 697.99,717.5540000000001 709.519,706.499 C 713.634,701.5690000000001 714.865,694.25 714.151,683.345 C 713.596,674.923 717.048,670.1220000000001 722.79,664.123 C 732.2959999999999,654.1690000000001 731.966,652.094 739.534,640.4430000000001 C 740.871,638.3910000000001 743.751,630.0250000000001 742.962,627.0210000000001 C 739.973,615.8360000000001 743.203,604.3130000000001 755.23,599.5790000000001 C 775.3340000000001,591.672 779.144,586.21 768.513,566.792 C 762.0590000000001,554.998 756.124,540.3620000000001 750.504,528.1460000000001 C 746.708,519.9300000000001 748.6270000000001,514.4870000000001 758.987,513.7550000000001 C 762.4739999999999,513.5060000000001 765.802,511.0060000000001 769.212,509.5370000000001 C 768.889,508.7530000000001 768.584,507.9690000000001 768.2719999999999,507.1810000000001 C 763.6099999999999,506.9040000000001 758.9649999999999,506.6240000000001 755.0429999999999,506.3930000000001 C 755.8109999999999,498.9200000000001 757.8589999999999,491.8150000000001 756.9679999999998,485.09100000000007 C 754.2379999999998,464.2390000000001 750.3859999999999,443.52700000000004 746.9589999999998,422.76300000000003 C 742.6169999999998,396.36 731.7239999999998,372.15900000000005 714.3219999999999,352.69300000000004 C 710.2179999999998,351.21900000000005 706.3229999999999,349.39500000000004 702.5009999999999,347.41800000000006 C 676.1009999999999,341.81200000000007 631.4789999999998,362.35600000000005 608.6219999999998,375.90400000000005 C 581.8489999999998,391.7710000000001 579.8599999999999,506.79400000000004 579.8599999999999,506.79400000000004 L 563.0009999999999,479.023 C 553.0879999999999,459.194 529.2919999999999,492.908 529.2919999999999,492.908 C 505.4869999999999,519.679 529.2919999999999,534.554 529.2919999999999,534.554 C 522.3539999999999,601.9789999999999 429.2419999999999,655.476 429.2419999999999,655.476 L 428.1009999999999,658.797 L 428.1009999999999,658.797 C 422.9219999999999,673.644 414.2469999999999,685.201 402.80599999999987,694.863 C 395.19799999999987,701.283 382.64499999999987,712.575 374.8779999999999,718.821 C 374.864,718.825 500.042,658.011 596.719,700.958" fill="none" stroke="#010202" stroke-miterlimit="10"/>
	<path d="M 456.462,1037.529 C 473.055,1057.311 494.113,1072.111 519.55,1081.995 C 539.42,1089.713 560.377,1094.76 581.0559999999999,1100.2559999999999 C 587.8059999999999,1102.0449999999998 595.535,1103.0369999999998 602.251,1101.6549999999997 C 639.1089999999999,1094.1369999999997 675.8249999999999,1085.9459999999997 712.442,1077.3109999999997 C 715.222,1076.6759999999997 718.996,1070.4219999999998 718.509,1067.3929999999998 C 715.867,1051.0179999999998 712.816,1034.6089999999997 708.455,1018.6119999999999 C 703.9060000000001,1001.9369999999999 698.152,985.9929999999998 691.433,970.6199999999999 C 678.175,968.8679999999999 664.681,967.8789999999999 650.949,967.8789999999999 C 577.03,967.879 509.263,994.037 456.462,1037.529" fill="none" stroke="#010202" stroke-miterlimit="10"/>
	<path d="M 868.74,686.799 C 911.856,558.201 939.689,414.77099999999996 951.11,352.81 C 936.955,408.68 897.413,519.396 835.4300000000001,603.669 C 844.611,632.999 855.801,660.815 868.74,686.799" fill="none" stroke="#010202" stroke-miterlimit="10"/>
	<path d="M 379.323,716.396 C 379.323,716.396 573.163,860.2819999999999 585.2149999999999,854.2919999999999 C 597.2679999999999,848.3059999999999 561.723,792.1909999999999 561.723,792.1909999999999 C 560.9889999999999,789.3279999999999 561.3009999999999,786.1439999999999 562.7189999999999,782.6689999999999 C 573.7259999999999,755.5599999999998 585.169,728.6249999999999 596.7199999999999,700.9629999999999 C 530.74,673.932 451.965,686.258 379.323,716.396" fill="none" stroke="#010202" stroke-miterlimit="10"/>
	<path d="M 529.292,534.554 C 529.292,534.554 505.49600000000004,519.683 529.292,492.90799999999996 C 529.292,492.90799999999996 553.086,459.19199999999995 563.014,479.02599999999995 L 579.873,506.79499999999996 C 579.873,506.79499999999996 581.849,391.77299999999997 608.6210000000001,375.904 C 631.4770000000001,362.367 676.1100000000001,341.808 702.5060000000001,347.42 C 669.1650000000001,330.17900000000003 634.873,308.473 539.1350000000001,387.319 C 439.7620000000001,469.15000000000003 412.1550000000001,544.7370000000001 406.6660000000001,594.443 C 414.64100000000013,603.572 422.9250000000001,613.377 427.7530000000001,617.367 C 435.2650000000001,623.5799999999999 434.0380000000001,631.473 431.9940000000001,639.279 C 430.1430000000001,646.299 410.7120000000001,653.609 410.7700000000001,654.2139999999999 C 416.4560000000001,654.592 422.1410000000001,655.001 429.2400000000001,655.4899999999999 C 429.239,655.479 522.353,601.983 529.292,534.554" fill="none" stroke="#010202" stroke-miterlimit="10"/>
	<path d="M 539.131,387.311 C 642.661,302.053 681.545,335.73499999999996 714.326,352.685 C 718.849,353.648 691.052,303.407 641.032,282.837 C 622.053,275.03499999999997 600.072,268.449 578.5980000000001,266.977 C 545.546,264.71299999999997 515.4490000000001,270.33799999999997 512.9730000000001,269.371 C 518.4810000000001,334.381 525.3220000000001,308.476 429.23800000000006,412.59499999999997 C 333.144,516.708 389.832,577.0 389.832,577.0 C 393.901,580.043 400.183,587.014 406.668,594.435 C 412.152,544.728 439.758,469.139 539.131,387.311" fill="none" stroke="#010202" stroke-miterlimit="10"/>
	<path d="M 289.579,623.802 C 265.784,608.933 237.892,541.078 235.304,531.985 C 239.538,534.838 241.04,535.841 241.943,536.447 C 238.318,525.117 234.502,513.173 230.67600000000002,501.226 C 232.175,500.474 233.67600000000002,499.712 235.175,498.959 C 239.143,504.399 243.27300000000002,509.718 247.04000000000002,515.2860000000001 C 258.36400000000003,532.042 285.26500000000004,536.0450000000001 297.55600000000004,520.479 C 306.52700000000004,509.129 303.74300000000005,499.85100000000006 290.321,495.09600000000006 C 283.62100000000004,492.71100000000007 276.821,490.16200000000003 270.77000000000004,486.51900000000006 C 260.12500000000006,480.1140000000001 257.64700000000005,472.51500000000004 261.14000000000004,459.2920000000001 C 268.78800000000007,465.1240000000001 273.23100000000005,476.6170000000001 283.28600000000006,474.3540000000001 C 275.8210000000001,465.9260000000001 264.81300000000005,458.4160000000001 261.06100000000004,448.2260000000001 C 253.31300000000005,427.18200000000013 279.81500000000005,402.0500000000001 286.168,380.0540000000001 C 287.273,376.2320000000001 290.984,373.0750000000001 293.761,369.8310000000001 C 296.053,367.15400000000005 299.31800000000004,365.17300000000006 301.10900000000004,362.2540000000001 C 304.778,356.2660000000001 307.74800000000005,349.84600000000006 312.23900000000003,341.2560000000001 C 306.12800000000004,326.71100000000007 306.12800000000004,326.71100000000007 319.874,317.6330000000001 C 312.807,300.8170000000001 317.021,296.3050000000001 340.447,295.6660000000001 C 340.935,278.5550000000001 344.741,275.97500000000014 367.593,278.0170000000001 C 367.993,274.65300000000013 367.285,270.4610000000001 369.022,268.0090000000001 C 373.313,261.94400000000013 377.714,254.56800000000013 383.925,251.63200000000012 C 391.709,247.96500000000012 397.78200000000004,254.28700000000012 402.029,261.33100000000013 C 404.811,265.9400000000001 408.304,270.1250000000001 410.484,273.1350000000001 C 416.58299999999997,270.2450000000001 421.06199999999995,268.1110000000001 425.551,265.9880000000001 C 428.168,274.9060000000001 430.782,283.8220000000001 434.238,295.57600000000014 C 435.331,293.53400000000016 436.284,289.97400000000016 438.561,287.80800000000016 C 459.793,267.6320000000002 483.22299999999996,257.7590000000002 512.968,269.36400000000015 C 507.484,204.35500000000013 463.092,156.94600000000014 320.07599999999996,171.63300000000015 C 177.18499999999997,186.31000000000014 248.95099999999996,113.21600000000015 249.07199999999995,113.09000000000015 C 248.91799999999995,113.21900000000015 248.77099999999996,113.35200000000015 248.61699999999993,113.48100000000015 C 239.34099999999992,121.55400000000014 91.91199999999992,252.80400000000014 35.86199999999994,483.61300000000017 C 35.86199999999994,483.61300000000017 242.10699999999994,697.5770000000002 355.97399999999993,615.4810000000002 C 338.886,626.229 310.1,636.622 289.579,623.802" fill="none" stroke="#010202" stroke-miterlimit="10"/>
	<path d="M 429.239,412.596 C 525.327,308.48 518.482,334.382 512.9739999999999,269.372 C 483.2299999999999,257.766 459.79999999999995,267.641 438.5679999999999,287.81800000000004 C 436.29099999999994,289.982 435.33899999999994,293.54400000000004 434.24099999999993,295.58200000000005 C 430.7939999999999,283.83200000000005 428.1689999999999,274.91200000000003 425.5539999999999,265.99600000000004 C 421.0759999999999,268.119 416.5879999999999,270.254 410.4889999999999,273.14300000000003 C 408.30299999999994,270.12800000000004 404.8139999999999,265.949 402.0379999999999,261.341 C 397.7879999999999,254.297 391.71699999999987,247.973 383.9339999999999,251.642 C 377.7249999999999,254.578 373.31999999999994,261.953 369.0279999999999,268.019 C 367.2909999999999,270.473 367.9999999999999,274.659 367.59899999999993,278.027 C 344.74199999999996,275.981 340.93799999999993,278.563 340.44999999999993,295.676 C 317.0349999999999,296.313 312.8069999999999,300.822 319.87799999999993,317.642 C 306.13899999999995,326.719 306.13899999999995,326.719 312.2459999999999,341.265 C 307.75199999999995,349.858 304.78399999999993,356.27799999999996 301.11299999999994,362.263 C 299.31699999999995,365.19399999999996 296.0489999999999,367.164 293.76699999999994,369.842 C 290.9889999999999,373.08 287.28099999999995,376.238 286.1739999999999,380.068 C 279.8179999999999,402.05899999999997 253.31999999999994,427.19599999999997 261.0659999999999,448.23699999999997 C 264.81999999999994,458.42199999999997 275.8289999999999,465.93399999999997 283.29099999999994,474.36699999999996 C 273.23099999999994,476.62699999999995 268.7869999999999,465.13899999999995 261.1449999999999,459.304 C 257.65399999999994,472.524 260.12999999999994,480.11999999999995 270.7749999999999,486.529 C 276.8299999999999,490.174 283.6259999999999,492.71999999999997 290.32499999999993,495.108 C 303.7459999999999,499.866 306.53399999999993,509.141 297.5589999999999,520.49 C 285.2749999999999,536.053 258.3709999999999,532.051 247.04299999999992,515.296 C 243.27399999999992,509.73300000000006 239.14599999999993,504.40900000000005 235.18099999999993,498.97200000000004 C 233.67899999999992,499.72200000000004 232.17999999999992,500.48400000000004 230.68099999999993,501.23800000000006 C 234.49799999999993,513.1840000000001 238.32499999999993,525.1270000000001 241.94799999999992,536.4590000000001 C 241.04999999999993,535.8520000000001 239.55199999999994,534.8480000000001 235.3089999999999,531.9970000000001 C 237.9019999999999,541.0790000000001 265.78899999999993,608.9430000000001 289.58199999999994,623.8120000000001 C 310.10299999999995,636.6320000000002 338.89099999999996,626.2430000000002 355.97399999999993,615.5070000000002 C 362.0729999999999,611.1020000000002 367.9119999999999,605.8560000000002 373.4459999999999,599.6750000000002 C 382.2939999999999,588.1970000000002 387.8399999999999,575.5240000000002 389.8379999999999,577.0100000000002 C 389.83,577.0 333.139,516.71 429.239,412.596" fill="none" stroke="#010202" stroke-miterlimit="10"/>
	<path d="M 434.03,1002.228 C 440.19699999999995,1015.463 447.74499999999995,1027.146 456.46299999999997,1037.531 C 509.265,994.0219999999999 577.035,967.881 650.9499999999999,967.881 C 664.6879999999999,967.881 678.179,968.87 691.434,970.622 C 685.078,956.062 677.861,941.9979999999999 669.953,928.356 C 598.9359999999999,906.555 500.45799999999997,903.085 403.44599999999997,907.585 C 408.96299999999997,914.645 412.17999999999995,922.8860000000001 412.977,932.1500000000001 C 415.123,957.082 423.544,979.698 434.03,1002.228" fill="none" stroke="#010202" stroke-miterlimit="10"/>
	<path d="M 908.801,1109.185 C 861.558,1035.031 782.9200000000001,982.689 691.4350000000001,970.622 C 698.1510000000001,985.995 703.9140000000001,1001.948 708.4570000000001,1018.6139999999999 C 712.8140000000001,1034.615 715.863,1051.021 718.5110000000001,1067.394 C 718.998,1070.424 715.224,1076.678 712.4440000000001,1077.312 C 675.8270000000001,1085.952 639.1110000000001,1094.139 602.2520000000001,1101.657 C 595.523,1103.029 587.8050000000001,1102.041 581.0580000000001,1100.258 C 560.3780000000002,1094.762 539.4220000000001,1089.717 519.5520000000001,1081.997 C 494.11400000000015,1072.1090000000002 473.05700000000013,1057.316 456.46300000000014,1037.5310000000002 C 388.90000000000015,1093.1770000000001 345.85900000000015,1177.2400000000002 345.85900000000015,1271.304 C 345.85900000000015,1280.851 346.3600000000001,1290.276 347.2230000000001,1299.5810000000001 C 402.1130000000001,1326.1270000000002 461.4240000000001,1340.71 523.3500000000001,1340.71 C 677.438,1340.714 815.514,1250.948 908.801,1109.185" fill="none" stroke="#010202" stroke-miterlimit="10"/>
	<path d="M 868.74,686.799 C 855.798,660.819 844.611,633.006 835.417,603.669 C 800.426,651.257 758.306,690.434 709.515,706.497 C 705.341,711.459 698.232,713.9989999999999 687.157,715.293 C 673.678,716.874 660.5310000000001,715.897 647.548,713.668 C 631.188,712.206 614.25,708.147 596.723,700.969 C 585.1759999999999,728.628 573.728,755.572 562.722,782.6740000000001 C 561.304,786.1560000000001 560.992,789.325 561.726,792.195 C 562.674,795.9480000000001 565.414,799.153 569.84,801.802 C 575.211,805.014 580.697,808.732 584.726,813.422 C 616.094,849.933 646.123,887.284 669.954,928.368 C 754.067,954.195 820.837,829.657 868.74,686.799" fill="none" stroke="#010202" stroke-miterlimit="10"/>
	<path d="M 835.42,603.669 C 816.514,543.372 805.9499999999999,476.763 805.9499999999999,406.654 C 805.9499999999999,384.321 807.1059999999999,362.38 809.17,340.836 C 759.438,351.332 714.333,352.682 714.333,352.682 C 731.737,372.15000000000003 742.627,396.35200000000003 746.968,422.75600000000003 C 750.382,443.519 754.247,464.235 756.981,485.08400000000006 C 757.855,491.80800000000005 755.824,498.91300000000007 755.049,506.38300000000004 C 758.968,506.61400000000003 763.614,506.896 768.278,507.175 C 768.5930000000001,507.959 768.902,508.745 769.221,509.53000000000003 C 765.813,511.007 762.486,513.495 758.997,513.7470000000001 C 748.639,514.479 746.7249999999999,519.9230000000001 750.515,528.1390000000001 C 756.133,540.3560000000001 762.074,554.9880000000002 768.518,566.7850000000001 C 779.1360000000001,586.1960000000001 775.3380000000001,591.662 755.2370000000001,599.5690000000001 C 743.2120000000001,604.306 739.984,615.8290000000001 742.969,627.0100000000001 C 743.759,630.0160000000001 740.8710000000001,638.3810000000001 739.5400000000001,640.4370000000001 C 731.9710000000001,652.0800000000002 732.3000000000001,654.1670000000001 722.796,664.1140000000001 C 717.056,670.1180000000002 713.605,674.9130000000001 714.162,683.3370000000001 C 714.871,694.2450000000001 713.645,701.5630000000001 709.524,706.4900000000001 C 758.307,690.432 800.425,651.244 835.42,603.669" fill="none" stroke="#010202" stroke-miterlimit="10"/>
	<path d="M 851.362,165.15 C 762.803,67.138 648.364,8.03 523.346,8.03 C 422.342,8.03 328.20500000000004,46.592 249.06600000000003,113.099 C 248.94300000000004,113.223 177.17800000000003,186.31900000000002 320.07000000000005,171.642 C 463.08700000000005,156.953 507.47600000000006,204.365 512.972,269.373 C 517.009,270.945 582.0169999999999,257.846 629.702,277.49199999999996 C 650.786,286.181 670.761,297.81199999999995 684.744,311.67799999999994 C 704.357,331.12399999999997 714.0,352.31699999999995 714.327,352.68499999999995 C 714.327,352.68499999999995 759.429,351.3299999999999 809.164,340.83899999999994 C 815.23,277.646 829.848,218.314 851.362,165.15" fill="none" stroke="#010202" stroke-miterlimit="10"/>
	<path d="M 868.74,686.799 C 820.833,829.659 754.069,954.1949999999999 669.953,928.3689999999999 C 677.861,941.9979999999999 685.078,956.0609999999999 691.434,970.6279999999999 C 782.9159999999999,982.6949999999999 861.557,1035.039 908.8,1109.192 C 956.7729999999999,1036.278 992.905,949.5930000000001 1013.269,854.293 C 954.866,817.816 904.96,759.554 868.74,686.799" fill="none" stroke="#010202" stroke-miterlimit="10"/>
	<path d="M 809.17,340.838 C 807.108,362.38100000000003 805.9499999999999,384.32300000000004 805.9499999999999,406.656 C 805.9499999999999,476.76 816.512,543.37 835.42,603.671 C 897.4,519.392 936.948,408.682 951.107,352.812 C 953.6809999999999,338.877 956.899,332.291 957.79,327.682 C 949.889,310.949 939.925,291.53000000000003 930.959,275.81800000000004 C 911.576,311.33 858.131,330.511 809.17,340.838" fill="none" stroke="#010202" stroke-miterlimit="10"/>
	<path d="M 930.961,275.815 C 907.708,235.075 880.982,197.937 851.361,165.14999999999998 C 829.847,218.31399999999996 815.229,277.645 809.165,340.83799999999997 C 858.131,330.511 911.576,311.33 930.961,275.815" fill="none" stroke="#010202" stroke-miterlimit="10"/>
	<path d="M 957.784,327.679 C 957.103,333.806 911.845,558.203 868.735,686.799 C 904.9540000000001,759.554 954.868,817.8199999999999 1013.261,854.286 C 1025.4859999999999,797.0569999999999 1032.018,736.708 1032.018,674.372 C 1032.03,546.369 1005.55,429.2 957.784,327.679" fill="none" stroke="#010202" stroke-miterlimit="10"/>
	<path d="M 244.709,921.09 C 293.604,915.2810000000001 348.271,910.143 403.443,907.5830000000001 C 401.155,904.6610000000001 398.52099999999996,901.9250000000001 395.43199999999996,899.4330000000001 C 386.79799999999994,892.4800000000001 377.98299999999995,889.8700000000001 366.75499999999994,893.2220000000001 C 344.77599999999995,899.8040000000001 329.40099999999995,888.1680000000001 327.89399999999995,865.5600000000001 C 326.8539999999999,849.878 319.77099999999996,837.6020000000001 305.1809999999999,830.416 C 298.82699999999994,827.292 292.47599999999994,824.148 284.86599999999993,820.3950000000001 C 287.42599999999993,816.354 289.08399999999995,812.8340000000001 291.5249999999999,810.0110000000001 C 314.77399999999994,782.9660000000001 337.47799999999995,755.4040000000001 361.80499999999995,729.3500000000001 C 364.10099999999994,726.8830000000002 366.55799999999994,724.5670000000001 369.05499999999995,722.2880000000001 C 316.6089999999999,745.7520000000002 265.90299999999996,777.9340000000001 221.29999999999995,810.6590000000001 C 232.19,844.716 240.166,881.849 244.709,921.09" fill="none" stroke="#010202" stroke-miterlimit="10"/>
	<path d="M 456.462,1037.529 C 447.752,1027.145 440.203,1015.463 434.029,1002.227 C 423.539,979.699 415.115,957.071 412.972,932.1519999999999 C 412.17199999999997,922.882 408.952,914.641 403.443,907.5869999999999 C 348.27099999999996,910.1439999999999 293.602,915.2869999999999 244.70899999999997,921.0939999999998 C 247.557,945.6419999999998 249.069,970.9929999999998 249.069,996.9659999999998 C 249.069,1072.8809999999999 236.289,1143.6539999999998 214.26299999999998,1203.5489999999998 C 254.308,1243.7259999999997 299.043,1276.3009999999997 347.20899999999995,1299.5919999999996 C 346.34299999999996,1290.2799999999997 345.84599999999995,1280.8569999999997 345.84599999999995,1271.3159999999996 C 345.853,1177.238 388.897,1093.188 456.462,1037.529" fill="none" stroke="#010202" stroke-miterlimit="10"/>
	<path d="M 68.133,944.429 C 68.133,944.429 140.523,933.468 244.716,921.092 C 240.169,881.851 232.192,844.718 221.298,810.669 C 128.772,878.565 68.133,944.429 68.133,944.429" fill="none" stroke="#010202" stroke-miterlimit="10"/>
	<path d="M 244.709,921.09 C 140.522,933.464 61.95500000000001,946.5930000000001 61.95500000000001,946.5930000000001 C 96.80600000000001,1045.738 148.83100000000002,1137.8960000000002 214.27,1203.5430000000001 C 236.29500000000002,1143.653 249.074,1072.8790000000001 249.074,996.9620000000001 C 249.074,970.991 247.552,945.638 244.709,921.09" fill="none" stroke="#010202" stroke-miterlimit="10"/>
	<path d="M 369.055,722.311 C 372.375,719.273 375.797,716.323 379.324,713.495 C 387.096,707.237 395.19100000000003,701.285 402.798,694.865 C 414.241,685.203 422.91700000000003,673.654 428.089,658.799 C 428.478,657.6949999999999 428.889,656.617 429.235,655.477 C 422.146,654.986 416.461,654.605 410.773,654.216 C 363.939,707.83 279.569,733.696 195.00700000000003,745.457 C 204.99500000000003,765.563 213.84000000000003,787.37 221.28800000000004,810.669 C 265.9,777.941 316.602,745.766 369.055,722.311" fill="none" stroke="#010202" stroke-miterlimit="10"/>
	<path d="M 410.597,652.434 C 412.99199999999996,651.937 430.142,646.295 431.99199999999996,639.283 C 434.037,631.4780000000001 435.26399999999995,623.586 427.74999999999994,617.371 C 422.92099999999994,613.386 414.63399999999996,603.581 406.6669999999999,594.4449999999999 L 389.82699999999994,576.9949999999999 C 384.7509999999999,585.6549999999999 379.26099999999997,593.1409999999998 373.43799999999993,599.656 C 370.40799999999996,603.583 366.99799999999993,607.381 363.20199999999994,610.4179999999999 C 361.14899999999994,612.0509999999999 358.6959999999999,613.7769999999999 355.96299999999997,615.4959999999999 C 242.091,697.59 35.846,483.626 35.846,483.626 C 24.297999999999995,537.379 26.301999999999996,531.385 17.181999999999995,607.735 C 17.192999999999994,607.731 119.786,594.426 194.64399999999998,744.7370000000001 C 278.87699999999995,732.4730000000001 362.687,710.0930000000001 409.18499999999995,653.618 L 410.597,652.434" fill="none" stroke="#010202" stroke-miterlimit="10"/>
	<path d="M 18.277,753.731 C 24.644000000000002,824.02 62.642,948.875 62.642,948.875 C 62.642,948.875 128.772,878.567 221.296,810.672 C 213.84,787.373 205.003,765.573 195.016,745.46 C 130.742,754.393 66.362,755.172 18.277,753.731" fill="none" stroke="#010202" stroke-miterlimit="10"/>
	<path d="M 18.277,753.731 C 66.374,755.17 130.579,754.055 194.652,744.737 C 152.774,660.843 86.838,607.731 17.195,607.731 C 15.983,607.731 14.668,651.874 14.668,674.374 C 14.666,701.235 15.915,727.702 18.277,753.731" fill="none" stroke="#010202" stroke-miterlimit="10"/>
	<path d="M 565.049,798.054 C 565.049,798.054 597.268,849.4649999999999 585.215,855.4499999999999 C 573.163,861.434 379.32300000000004,717.554 379.32300000000004,717.554 L 379.32300000000004,717.554 C 374.67,719.486 373.68500000000006,720.2389999999999 369.05400000000003,722.314 C 366.56,724.5889999999999 364.095,726.896 361.805,729.3679999999999 C 337.478,755.42 314.776,782.982 291.523,810.0269999999999 C 289.083,812.857 287.423,816.367 284.86400000000003,820.411 C 292.47200000000004,824.165 298.82200000000006,827.3019999999999 305.177,830.425 C 319.769,837.606 326.851,849.8919999999999 327.89000000000004,865.574 C 329.40000000000003,888.1869999999999 344.77600000000007,899.818 366.75300000000004,893.2299999999999 C 377.98600000000005,889.872 386.79400000000004,892.4869999999999 395.43000000000006,899.4409999999999 C 398.51900000000006,901.9329999999999 401.1530000000001,904.67 403.4390000000001,907.5919999999999 C 500.4530000000001,903.0949999999999 598.9290000000001,906.5569999999999 669.9490000000001,928.3689999999999 C 646.124,887.2849999999999 616.081,849.9259999999999 584.7210000000001,813.4229999999999 C 580.7000000000002,808.7239999999999 575.2140000000002,805.0089999999999 569.8380000000001,801.7969999999999 L 565.049,798.054" fill="none" stroke="#010202" stroke-miterlimit="10"/>
</svg>
