<!DOCTYPE svg>
<svg xmlns="http://www.w3.org/2000/svg" xmlns:xlink="http://www.w3.org/1999/xlink" width="800" height="800">
<g transform="translate(400.000000,400.000000)">
<g transform="scale(1.000000,1.000000)">
<path stroke="rgb(0,0,0)" stroke-opacity="1" fill="rgb(255,255,255)" fill-opacity="1" d="M400 -276 L400 -277 L400 -278 L400 -279 L400 -280 L400 -281 L400 -282 L400 -283 L400 -284 L400 -285 L400 -286 L400 -287 L400 -288 L400 -289 L400 -290 L400 -291 L400 -292 L400 -293 L400 -294 L400 -295 L400 -296 L400 -297 L400 -298 L400 -299 L400 -300 L400 -301 L400 -302 L400 -303 L400 -304 L400 -305 L400 -306 L400 -307 L400 -308 L400 -309 L400 -310 L400 -311 L400 -312 L400 -313 L400 -314 L400 -315 L400 -316 L400 -317 L400 -318 L400 -319 L400 -320 L400 -321 L400 -322 L400 -323 L400 -324 L400 -325 L399 -325 L398 -325 L397 -325 L396 -325 L395 -325 L394 -325 L393 -325 L392 -325 L391 -325 L390 -325 L389 -325 L388 -325 L387 -325 L386 -325 L385 -325 L384 -325 L383 -325 L382 -325 L381 -325 L380 -325 L379 -325 L378 -325 L377 -325 L376 -325 L375 -325 L374 -325 L373 -325 L372 -325 L371 -325 L370 -325 L369 -325 L368 -325 L367 -325 L366 -325 L365 -325 L364 -325 L363 -325 L362 -325 L361 -325 L360 -325 L359 -325 L358 -325 L357 -325 L356 -325 L355 -325 L354 -325 L353 -325 L352 -325 L351 -325 L350 -325 L350 -324 L350 -323 L350 -322 L350 -321 L350 -320 L350 -319 L350 -318 L350 -317 L350 -316 L350 -315 L350 -314 L350 -313 L350 -312 L350 -311 L350 -310 L350 -309 L350 -308 L350 -307 L350 -306 L350 -305 L350 -304 L350 -303 L350 -302 L350 -301 L350 -300 L350 -299 L350 -298 L350 -297 L350 -296 L350 -295 L350 -294 L350 -293 L350 -292 L350 -291 L350 -290 L350 -289 L350 -288 L350 -287 L350 -286 L350 -285 L350 -284 L350 -283 L350 -282 L350 -281 L350 -280 L350 -279 L350 -278 L350 -277 L350 -276 L350 -275 L351 -275 L352 -275 L353 -275 L354 -275 L355 -275 L356 -275 L357 -275 L358 -275 L359 -275 L360 -275 L361 -275 L362 -275 L363 -275 L364 -275 L365 -275 L366 -275 L367 -275 L368 -275 L369 -275 L370 -275 L371 -275 L372 -275 L373 -275 L374 -275 L375 -275 L376 -275 L377 -275 L378 -275 L379 -275 L380 -275 L381 -275 L382 -275 L383 -275 L384 -275 L385 -275 L386 -275 L387 -275 L388 -275 L389 -275 L390 -275 L391 -275 L392 -275 L393 -275 L394 -275 L395 -275 L396 -275 L397 -275 L398 -275 L399 -275 L400 -275 L400 -276 Z " />
<path stroke="rgb(0,0,0)" stroke-opacity="1" fill="rgb(255,255,255)" fill-opacity="1" d="M300 298 L300 296 L300 294 L300 292 L300 290 L300 288 L300 286 L300 284 L300 282 L300 280 L300 278 L300 276 L300 274 L300 272 L300 270 L300 268 L300 266 L300 264 L300 262 L300 260 L300 258 L300 256 L300 254 L300 252 L300 250 L300 248 L300 246 L300 244 L300 242 L300 240 L300 238 L300 236 L300 234 L300 232 L300 230 L300 228 L300 226 L300 224 L300 222 L300 220 L300 218 L300 216 L300 214 L300 212 L300 210 L300 208 L300 206 L300 204 L300 202 L300 200 L300 198 L300 196 L300 194 L300 192 L300 190 L300 188 L300 186 L300 184 L300 182 L300 180 L300 178 L300 176 L300 174 L300 172 L300 170 L300 168 L300 166 L300 164 L300 162 L300 160 L300 158 L300 156 L300 154 L300 152 L300 150 L300 148 L300 146 L300 144 L300 142 L300 140 L300 138 L300 136 L300 134 L300 132 L300 130 L300 128 L300 126 L300 124 L300 122 L300 120 L300 118 L300 116 L300 114 L300 112 L300 110 L300 108 L300 106 L300 104 L300 102 L300 100 L300 98 L300 96 L300 94 L300 92 L300 90 L300 88 L300 86 L300 84 L300 82 L300 80 L300 78 L300 76 L300 74 L300 72 L300 70 L300 68 L300 66 L300 64 L300 62 L300 60 L300 58 L300 56 L300 54 L300 52 L300 50 L300 48 L300 46 L300 44 L300 42 L300 40 L300 38 L300 36 L300 34 L300 32 L300 30 L300 28 L300 26 L300 24 L300 22 L300 20 L300 18 L300 16 L300 14 L300 12 L300 10 L300 8 L300 6 L300 4 L300 2 L300 0 L300 -2 L300 -3.99999 L300 -6 L300 -8 L300 -9.99999 L300 -12 L300 -14 L300 -16 L300 -18 L300 -20 L300 -22 L300 -24 L300 -26 L300 -28 L300 -30 L300 -32 L300 -34 L300 -36 L300 -38 L300 -40 L300 -42 L300 -44 L300 -46 L300 -48 L300 -50 L300 -52 L300 -54 L300 -56 L300 -58 L300 -60 L300 -62 L300 -64 L300 -66 L300 -68 L300 -70 L300 -72 L300 -74 L300 -76 L300 -78 L300 -80 L300 -82 L300 -84 L300 -86 L300 -88 L300 -90 L300 -92 L300 -94 L300 -96 L300 -98 L300 -100 L300 -102 L300 -104 L300 -106 L300 -108 L300 -110 L300 -112 L300 -114 L300 -116 L300 -118 L300 -120 L300 -122 L300 -124 L300 -126 L300 -128 L300 -130 L300 -132 L300 -134 L300 -136 L300 -138 L300 -140 L300 -142 L300 -144 L300 -146 L300 -148 L300 -150 L300 -152 L300 -154 L300 -156 L300 -158 L300 -160 L300 -162 L300 -164 L300 -166 L300 -168 L300 -170 L300 -172 L300 -174 L300 -176 L300 -178 L300 -180 L300 -182 L300 -184 L300 -186 L300 -188 L300 -190 L300 -192 L300 -194 L300 -196 L300 -198 L300 -200 L300 -202 L300 -204 L300 -206 L300 -208 L300 -210 L300 -212 L300 -214 L300 -216 L300 -218 L300 -220 L300 -222 L300 -224 L300 -226 L300 -228 L300 -230 L300 -232 L300 -234 L300 -236 L300 -238 L300 -240 L300 -242 L300 -244 L300 -246 L300 -248 L300 -250 L300 -252 L300 -254 L300 -256 L300 -258 L300 -260 L300 -262 L300 -264 L300 -266 L300 -268 L300 -270 L300 -272 L300 -274 L300 -276 L300 -278 L300 -280 L300 -282 L300 -284 L300 -286 L300 -288 L300 -290 L300 -292 L300 -294 L300 -296 L300 -298 L300 -300 L298 -300 L296 -300 L294 -300 L292 -300 L290 -300 L288 -300 L286 -300 L284 -300 L282 -300 L280 -300 L278 -300 L276 -300 L274 -300 L272 -300 L270 -300 L268 -300 L266 -300 L264 -300 L262 -300 L260 -300 L258 -300 L256 -300 L254 -300 L252 -300 L250 -300 L248 -300 L246 -300 L244 -300 L242 -300 L240 -300 L238 -300 L236 -300 L234 -300 L232 -300 L230 -300 L228 -300 L226 -300 L224 -300 L222 -300 L220 -300 L218 -300 L216 -300 L214 -300 L212 -300 L210 -300 L208 -300 L206 -300 L204 -300 L202 -300 L200 -300 L198 -300 L196 -300 L194 -300 L192 -300 L190 -300 L188 -300 L186 -300 L184 -300 L182 -300 L180 -300 L178 -300 L176 -300 L174 -300 L172 -300 L170 -300 L168 -300 L166 -300 L164 -300 L162 -300 L160 -300 L158 -300 L156 -300 L154 -300 L152 -300 L150 -300 L148 -300 L146 -300 L144 -300 L142 -300 L140 -300 L138 -300 L136 -300 L134 -300 L132 -300 L130 -300 L128 -300 L126 -300 L124 -300 L122 -300 L120 -300 L118 -300 L116 -300 L114 -300 L112 -300 L110 -300 L108 -300 L106 -300 L104 -300 L102 -300 L100 -300 L98 -300 L96 -300 L94 -300 L92 -300 L90 -300 L88 -300 L86 -300 L84 -300 L82 -300 L80 -300 L78 -300 L76 -300 L74 -300 L72 -300 L70 -300 L68 -300 L66 -300 L64 -300 L62 -300 L60 -300 L58 -300 L56 -300 L54 -300 L52 -300 L50 -300 L48 -300 L46 -300 L44 -300 L42 -300 L40 -300 L38 -300 L36 -300 L34 -300 L32 -300 L30 -300 L28 -300 L26 -300 L24 -300 L22 -300 L20 -300 L18 -300 L16 -300 L14 -300 L12 -300 L10 -300 L8 -300 L6 -300 L4 -300 L2 -300 L0 -300 L-2 -300 L-3.99999 -300 L-6 -300 L-8 -300 L-9.99999 -300 L-12 -300 L-14 -300 L-16 -300 L-18 -300 L-20 -300 L-22 -300 L-24 -300 L-26 -300 L-28 -300 L-30 -300 L-32 -300 L-34 -300 L-36 -300 L-38 -300 L-40 -300 L-42 -300 L-44 -300 L-46 -300 L-48 -300 L-50 -300 L-52 -300 L-54 -300 L-56 -300 L-58 -300 L-60 -300 L-62 -300 L-64 -300 L-66 -300 L-68 -300 L-70 -300 L-72 -300 L-74 -300 L-76 -300 L-78 -300 L-80 -300 L-82 -300 L-84 -300 L-86 -300 L-88 -300 L-90 -300 L-92 -300 L-94 -300 L-96 -300 L-98 -300 L-100 -300 L-102 -300 L-104 -300 L-106 -300 L-108 -300 L-110 -300 L-112 -300 L-114 -300 L-116 -300 L-118 -300 L-120 -300 L-122 -300 L-124 -300 L-126 -300 L-128 -300 L-130 -300 L-132 -300 L-134 -300 L-136 -300 L-138 -300 L-140 -300 L-142 -300 L-144 -300 L-146 -300 L-148 -300 L-150 -300 L-152 -300 L-154 -300 L-156 -300 L-158 -300 L-160 -300 L-162 -300 L-164 -300 L-166 -300 L-168 -300 L-170 -300 L-172 -300 L-174 -300 L-176 -300 L-178 -300 L-180 -300 L-182 -300 L-184 -300 L-186 -300 L-188 -300 L-190 -300 L-192 -300 L-194 -300 L-196 -300 L-198 -300 L-200 -300 L-202 -300 L-204 -300 L-206 -300 L-208 -300 L-210 -300 L-212 -300 L-214 -300 L-216 -300 L-218 -300 L-220 -300 L-222 -300 L-224 -300 L-226 -300 L-228 -300 L-230 -300 L-232 -300 L-234 -300 L-236 -300 L-238 -300 L-240 -300 L-242 -300 L-244 -300 L-246 -300 L-248 -300 L-250 -300 L-252 -300 L-254 -300 L-256 -300 L-258 -300 L-260 -300 L-262 -300 L-264 -300 L-266 -300 L-268 -300 L-270 -300 L-272 -300 L-274 -300 L-276 -300 L-278 -300 L-280 -300 L-282 -300 L-284 -300 L-286 -300 L-288 -300 L-290 -300 L-292 -300 L-294 -300 L-296 -300 L-298 -300 L-300 -300 L-300 -298 L-300 -296 L-300 -294 L-300 -292 L-300 -290 L-300 -288 L-300 -286 L-300 -284 L-300 -282 L-300 -280 L-300 -278 L-300 -276 L-300 -274 L-300 -272 L-300 -270 L-300 -268 L-300 -266 L-300 -264 L-300 -262 L-300 -260 L-300 -258 L-300 -256 L-300 -254 L-300 -252 L-300 -250 L-300 -248 L-300 -246 L-300 -244 L-300 -242 L-300 -240 L-300 -238 L-300 -236 L-300 -234 L-300 -232 L-300 -230 L-300 -228 L-300 -226 L-300 -224 L-300 -222 L-300 -220 L-300 -218 L-300 -216 L-300 -214 L-300 -212 L-300 -210 L-300 -208 L-300 -206 L-300 -204 L-300 -202 L-300 -200 L-300 -198 L-300 -196 L-300 -194 L-300 -192 L-300 -190 L-300 -188 L-300 -186 L-300 -184 L-300 -182 L-300 -180 L-300 -178 L-300 -176 L-300 -174 L-300 -172 L-300 -170 L-300 -168 L-300 -166 L-300 -164 L-300 -162 L-300 -160 L-300 -158 L-300 -156 L-300 -154 L-300 -152 L-300 -150 L-300 -148 L-300 -146 L-300 -144 L-300 -142 L-300 -140 L-300 -138 L-300 -136 L-300 -134 L-300 -132 L-300 -130 L-300 -128 L-300 -126 L-300 -124 L-300 -122 L-300 -120 L-300 -118 L-300 -116 L-300 -114 L-300 -112 L-300 -110 L-300 -108 L-300 -106 L-300 -104 L-300 -102 L-300 -100 L-300 -98 L-300 -96 L-300 -94 L-300 -92 L-300 -90 L-300 -88 L-300 -86 L-300 -84 L-300 -82 L-300 -80 L-300 -78 L-300 -76 L-300 -74 L-300 -72 L-300 -70 L-300 -68 L-300 -66 L-300 -64 L-300 -62 L-300 -60 L-300 -58 L-300 -56 L-300 -54 L-300 -52 L-300 -50 L-300 -48 L-300 -46 L-300 -44 L-300 -42 L-300 -40 L-300 -38 L-300 -36 L-300 -34 L-300 -32 L-300 -30 L-300 -28 L-300 -26 L-300 -24 L-300 -22 L-300 -20 L-300 -18 L-300 -16 L-300 -14 L-300 -12 L-300 -10 L-300 -8 L-300 -6 L-300 -4 L-300 -2 L-300 0 L-300 2 L-300 3.99999 L-300 6 L-300 8 L-300 9.99999 L-300 12 L-300 14 L-300 16 L-300 18 L-300 20 L-300 22 L-300 24 L-300 26 L-300 28 L-300 30 L-300 32 L-300 34 L-300 36 L-300 38 L-300 40 L-300 42 L-300 44 L-300 46 L-300 48 L-300 50 L-300 52 L-300 54 L-300 56 L-300 58 L-300 60 L-300 62 L-300 64 L-300 66 L-300 68 L-300 70 L-300 72 L-300 74 L-300 76 L-300 78 L-300 80 L-300 82 L-300 84 L-300 86 L-300 88 L-300 90 L-300 92 L-300 94 L-300 96 L-300 98 L-300 100 L-300 102 L-300 104 L-300 106 L-300 108 L-300 110 L-300 112 L-300 114 L-300 116 L-300 118 L-300 120 L-300 122 L-300 124 L-300 126 L-300 128 L-300 130 L-300 132 L-300 134 L-300 136 L-300 138 L-300 140 L-300 142 L-300 144 L-300 146 L-300 148 L-300 150 L-300 152 L-300 154 L-300 156 L-300 158 L-300 160 L-300 162 L-300 164 L-300 166 L-300 168 L-300 170 L-300 172 L-300 174 L-300 176 L-300 178 L-300 180 L-300 182 L-300 184 L-300 186 L-300 188 L-300 190 L-300 192 L-300 194 L-300 196 L-300 198 L-300 200 L-300 202 L-300 204 L-300 206 L-300 208 L-300 210 L-300 212 L-300 214 L-300 216 L-300 218 L-300 220 L-300 222 L-300 224 L-300 226 L-300 228 L-300 230 L-300 232 L-300 234 L-300 236 L-300 238 L-300 240 L-300 242 L-300 244 L-300 246 L-300 248 L-300 250 L-300 252 L-300 254 L-300 256 L-300 258 L-300 260 L-300 262 L-300 264 L-300 266 L-300 268 L-300 270 L-300 272 L-300 274 L-300 276 L-300 278 L-300 280 L-300 282 L-300 284 L-300 286 L-300 288 L-300 290 L-300 292 L-300 294 L-300 296 L-300 298 L-300 300 L-298 300 L-296 300 L-294 300 L-292 300 L-290 300 L-288 300 L-286 300 L-284 300 L-282 300 L-280 300 L-278 300 L-276 300 L-274 300 L-272 300 L-270 300 L-268 300 L-266 300 L-264 300 L-262 300 L-260 300 L-258 300 L-256 300 L-254 300 L-252 300 L-250 300 L-248 300 L-246 300 L-244 300 L-242 300 L-240 300 L-238 300 L-236 300 L-234 300 L-232 300 L-230 300 L-228 300 L-226 300 L-224 300 L-222 300 L-220 300 L-218 300 L-216 300 L-214 300 L-212 300 L-210 300 L-208 300 L-206 300 L-204 300 L-202 300 L-200 300 L-198 300 L-196 300 L-194 300 L-192 300 L-190 300 L-188 300 L-186 300 L-184 300 L-182 300 L-180 300 L-178 300 L-176 300 L-174 300 L-172 300 L-170 300 L-168 300 L-166 300 L-164 300 L-162 300 L-160 300 L-158 300 L-156 300 L-154 300 L-152 300 L-150 300 L-148 300 L-146 300 L-144 300 L-142 300 L-140 300 L-138 300 L-136 300 L-134 300 L-132 300 L-130 300 L-128 300 L-126 300 L-124 300 L-122 300 L-120 300 L-118 300 L-116 300 L-114 300 L-112 300 L-110 300 L-108 300 L-106 300 L-104 300 L-102 300 L-100 300 L-98 300 L-96 300 L-94 300 L-92 300 L-90 300 L-88 300 L-86 300 L-84 300 L-82 300 L-80 300 L-78 300 L-76 300 L-74 300 L-72 300 L-70 300 L-68 300 L-66 300 L-64 300 L-62 300 L-60 300 L-58 300 L-56 300 L-54 300 L-52 300 L-50 300 L-48 300 L-46 300 L-44 300 L-42 300 L-40 300 L-38 300 L-36 300 L-34 300 L-32 300 L-30 300 L-28 300 L-26 300 L-24 300 L-22 300 L-20 300 L-18 300 L-16 300 L-14 300 L-12 300 L-10 300 L-8 300 L-6 300 L-4 300 L-2 300 L0 300 L2 300 L3.99999 300 L6 300 L8 300 L9.99999 300 L12 300 L14 300 L16 300 L18 300 L20 300 L22 300 L24 300 L26 300 L28 300 L30 300 L32 300 L34 300 L36 300 L38 300 L40 300 L42 300 L44 300 L46 300 L48 300 L50 300 L52 300 L54 300 L56 300 L58 300 L60 300 L62 300 L64 300 L66 300 L68 300 L70 300 L72 300 L74 300 L76 300 L78 300 L80 300 L82 300 L84 300 L86 300 L88 300 L90 300 L92 300 L94 300 L96 300 L98 300 L100 300 L102 300 L104 300 L106 300 L108 300 L110 300 L112 300 L114 300 L116 300 L118 300 L120 300 L122 300 L124 300 L126 300 L128 300 L130 300 L132 300 L134 300 L136 300 L138 300 L140 300 L142 300 L144 300 L146 300 L148 300 L150 300 L152 300 L154 300 L156 300 L158 300 L160 300 L162 300 L164 300 L166 300 L168 300 L170 300 L172 300 L174 300 L176 300 L178 300 L180 300 L182 300 L184 300 L186 300 L188 300 L190 300 L192 300 L194 300 L196 300 L198 300 L200 300 L202 300 L204 300 L206 300 L208 300 L210 300 L212 300 L214 300 L216 300 L218 300 L220 300 L222 300 L224 300 L226 300 L228 300 L230 300 L232 300 L234 300 L236 300 L238 300 L240 300 L242 300 L244 300 L246 300 L248 300 L250 300 L252 300 L254 300 L256 300 L258 300 L260 300 L262 300 L264 300 L266 300 L268 300 L270 300 L272 300 L274 300 L276 300 L278 300 L280 300 L282 300 L284 300 L286 300 L288 300 L290 300 L292 300 L294 300 L296 300 L298 300 L300 300 L300 298 Z M128 200 L126 200 L124 200 L122 200 L120 200 L118 200 L116 200 L114 200 L112 200 L110 200 L108 200 L106 200 L104 200 L102 200 L100 200 L98 200 L96 200 L94 200 L92 200 L90 200 L88 200 L86 200 L84 200 L82 200 L80 200 L78 200 L76 200 L74 200 L72 200 L70 200 L68 200 L66 200 L64 200 L62 200 L60 200 L58 200 L56 200 L54 200 L52 200 L50 200 L48 200 L46 200 L44 200 L42 200 L40 200 L38 200 L36 200 L34 200 L32 200 L30 200 L28 200 L26 200 L24 200 L22 200 L20 200 L18 200 L16 200 L14 200 L12 200 L10 200 L8 200 L6 200 L4 200 L2 200 L0 200 L0 198 L0 196 L0 194 L0 192 L0 190 L0 188 L0 186 L0 184 L0 182 L0 180 L0 178 L0 176 L0 174 L0 172 L0 170 L0 168 L0 166 L0 164 L0 162 L0 160 L0 158 L0 156 L0 154 L0 152 L0 150 L0 148 L0 146 L0 144 L0 142 L0 140 L0 138 L0 136 L0 134 L0 132 L0 130 L0 128 L0 126 L0 124 L0 122 L0 120 L0 118 L0 116 L0 114 L0 112 L0 110 L0 108 L0 106 L0 104 L0 102 L0 100 L-2 100 L-4 100 L-6 100 L-8 100 L-10 100 L-12 100 L-14 100 L-16 100 L-18 100 L-20 100 L-22 100 L-24 100 L-26 100 L-28 100 L-30 100 L-32 100 L-34 100 L-36 100 L-38 100 L-40 100 L-42 100 L-44 100 L-46 100 L-48 100 L-50 100 L-52 100 L-54 100 L-56 100 L-58 100 L-60 100 L-62 100 L-64 100 L-66 100 L-68 100 L-70 100 L-72 100 L-74 100 L-76 100 L-78 100 L-80 100 L-82 100 L-84 100 L-86 100 L-88 100 L-90 100 L-92 100 L-94 100 L-96 100 L-98 100 L-100 100 L-100 98 L-100 96 L-100 94 L-100 92 L-100 90 L-100 88 L-100 86 L-100 84 L-100 82 L-100 80 L-100 78 L-100 76 L-100 74 L-100 72 L-100 70 L-100 68 L-100 66 L-100 64 L-100 62 L-100 60 L-100 58 L-100 56 L-100 54 L-100 52 L-100 50 L-100 48 L-100 46 L-100 44 L-100 42 L-100 40 L-100 38 L-100 36 L-100 34 L-100 32 L-100 30 L-100 28 L-100 26 L-100 24 L-100 22 L-100 20 L-100 18 L-100 16 L-100 14 L-100 12 L-100 10 L-100 8 L-100 6 L-100 4 L-100 2 L-100 0 L-100 -2 L-100 -4 L-100 -6 L-100 -8 L-100 -10 L-100 -12 L-100 -14 L-100 -16 L-100 -18 L-100 -20 L-100 -22 L-100 -24 L-100 -26 L-100 -28 L-100 -30 L-100 -32 L-100 -34 L-100 -36 L-100 -38 L-100 -40 L-100 -42 L-100 -44 L-100 -46 L-100 -48 L-100 -50 L-100 -52 L-100 -54 L-100 -56 L-100 -58 L-100 -60 L-100 -62 L-100 -64 L-100 -66 L-100 -68 L-100 -70 L-100 -72 L-100 -74 L-100 -76 L-100 -78 L-100 -80 L-100 -82 L-100 -84 L-100 -86 L-100 -88 L-100 -90 L-100 -92 L-100 -94 L-100 -96 L-100 -98 L-100 -100 L-98 -100 L-96 -100 L-94 -100 L-92 -100 L-90 -100 L-88 -100 L-86 -100 L-84 -100 L-82 -100 L-80 -100 L-78 -100 L-76 -100 L-74 -100 L-72 -100 L-70 -100 L-68 -100 L-66 -100 L-64 -100 L-62 -100 L-60 -100 L-58 -100 L-56 -100 L-54 -100 L-52 -100 L-50 -100 L-48 -100 L-46 -100 L-44 -100 L-42 -100 L-40 -100 L-38 -100 L-36 -100 L-34 -100 L-32 -100 L-30 -100 L-28 -100 L-26 -100 L-24 -100 L-22 -100 L-20 -100 L-18 -100 L-16 -100 L-14 -100 L-12 -100 L-10 -100 L-8 -100 L-6 -100 L-4 -100 L-2 -100 L0 -100 L2 -100 L4 -100 L6 -100 L8 -100 L10 -100 L12 -100 L14 -100 L16 -100 L18 -100 L20 -100 L22 -100 L24 -100 L26 -100 L28 -100 L30 -100 L32 -100 L34 -100 L36 -100 L38 -100 L40 -100 L42 -100 L44 -100 L46 -100 L48 -100 L50 -100 L52 -100 L54 -100 L56 -100 L58 -100 L60 -100 L62 -100 L64 -100 L66 -100 L68 -100 L70 -100 L72 -100 L74 -100 L76 -100 L78 -100 L80 -100 L82 -100 L84 -100 L86 -100 L88 -100 L90 -100 L92 -100 L94 -100 L96 -100 L98 -100 L100 -100 L100 -98 L100 -96 L100 -94 L100 -92 L100 -90 L100 -88 L100 -86 L100 -84 L100 -82 L100 -80 L100 -78 L100 -76 L100 -74 L100 -72 L100 -70 L100 -68 L100 -66 L100 -64 L100 -62 L100 -60 L100 -58 L100 -56 L100 -54 L100 -52 L100 -50 L100 -48 L100 -46 L100 -44 L100 -42 L100 -40 L100 -38 L100 -36 L100 -34 L100 -32 L100 -30 L100 -28 L100 -26 L100 -24 L100 -22 L100 -20 L100 -18 L100 -16 L100 -14 L100 -12 L100 -10 L100 -8 L100 -6 L100 -4 L100 -2 L100 0 L102 0 L104 0 L106 0 L108 0 L110 0 L112 0 L114 0 L116 0 L118 0 L120 0 L122 0 L124 0 L126 0 L128 0 L130 0 L132 0 L134 0 L136 0 L138 0 L140 0 L142 0 L144 0 L146 0 L148 0 L150 0 L152 0 L154 0 L156 0 L158 0 L160 0 L162 0 L164 0 L166 0 L168 0 L170 0 L172 0 L174 0 L176 0 L178 0 L180 0 L182 0 L184 0 L186 0 L188 0 L190 0 L192 0 L194 0 L196 0 L198 0 L200 0 L200 2 L200 4 L200 6 L200 8 L200 10 L200 12 L200 14 L200 16 L200 18 L200 20 L200 22 L200 24 L200 26 L200 28 L200 30 L200 32 L200 34 L200 36 L200 38 L200 40 L200 42 L200 44 L200 46 L200 48 L200 50 L200 52 L200 54 L200 56 L200 58 L200 60 L200 62 L200 64 L200 66 L200 68 L200 70 L200 72 L200 74 L200 76 L200 78 L200 80 L200 82 L200 84 L200 86 L200 88 L200 90 L200 92 L200 94 L200 96 L200 98 L200 100 L200 102 L200 104 L200 106 L200 108 L200 110 L200 112 L200 114 L200 116 L200 118 L200 120 L200 122 L200 124 L200 126 L200 128 L200 130 L200 132 L200 134 L200 136 L200 138 L200 140 L200 142 L200 144 L200 146 L200 148 L200 150 L200 152 L200 154 L200 156 L200 158 L200 160 L200 162 L200 164 L200 166 L200 168 L200 170 L200 172 L200 174 L200 176 L200 178 L200 180 L200 182 L200 184 L200 186 L200 188 L200 190 L200 192 L200 194 L200 196 L200 198 L200 200 L198 200 L196 200 L194 200 L192 200 L190 200 L188 200 L186 200 L184 200 L182 200 L180 200 L178 200 L176 200 L174 200 L172 200 L170 200 L168 200 L166 200 L164 200 L162 200 L160 200 L158 200 L156 200 L154 200 L152 200 L150 200 L148 200 L146 200 L144 200 L142 200 L140 200 L138 200 L136 200 L134 200 L132 200 L130 200 L128 200 Z M-280.417 -12 L-281.793 -13.1818 L-283.31 -14.4833 L-284.826 -15.7848 L-286.342 -17.0864 L-287.858 -18.3879 L-289.374 -19.6894 L-290.89 -20.9909 L-292.406 -22.2924 L-293.922 -23.5939 L-294.395 -24 L-299.054 -28 L-299.986 -28.8 L-300 -28.8123 L-299.054 -28 L-298.47 -27.4985 L-296.954 -26.197 L-295.438 -24.8955 L-294.395 -24 L-280.417 -12 L-280.277 -11.8803 L-279.617 -11.3133 L-280.417 -12 Z M-277.245 -9.27727 L-275.729 -7.97575 L-275.451 -7.73673 L-274.213 -6.67424 L-273.384 -5.96245 L-272.263 -5 L-271.181 -4.07121 L-269.744 -2.83688 L-269.665 -2.76969 L-268.149 -1.46818 L-266.633 -0.16666 L-265.117 1.13484 L-263.601 2.43636 L-262.085 3.73787 L-260.569 5.03939 L-259.053 6.3409 L-257.537 7.64242 L-256.021 8.94393 L-254.505 10.2454 L-252.989 11.547 L-251.473 12.8485 L-249.957 14.15 L-248.441 15.4515 L-246.925 16.753 L-245.409 18.0545 L-243.893 19.3561 L-242.377 20.6576 L-240.861 21.9591 L-239.345 23.2606 L-237.829 24.5621 L-236.313 25.8636 L-234.797 27.1652 L-233.281 28.4667 L-231.765 29.7682 L-230.249 31.0697 L-228.733 32.3712 L-227.217 33.6727 L-225.701 34.9742 L-224.185 36.2758 L-222.669 37.5773 L-221.153 38.8788 L-219.637 40.1803 L-218.121 41.4818 L-216.605 42.7833 L-215.089 44.0848 L-213.573 45.3864 L-212.057 46.6879 L-210.541 47.9894 L-209.025 49.2909 L-207.509 50.5924 L-205.993 51.8939 L-204.477 53.1955 L-202.961 54.497 L-201.445 55.7985 L-199.929 57.1 L-198.413 58.4015 L-196.897 59.703 L-195.381 61.0045 L-193.864 62.3061 L-192.348 63.6076 L-190.832 64.9091 L-189.316 66.2106 L-187.8 67.5121 L-186.284 68.8136 L-184.768 70.1151 L-183.252 71.4167 L-181.736 72.7182 L-180.22 74.0197 L-178.704 75.3212 L-177.188 76.6227 L-175.672 77.9242 L-174.156 79.2258 L-172.64 80.5273 L-171.124 81.8288 L-169.608 83.1303 L-168.092 84.4318 L-166.576 85.7333 L-165.06 87.0348 L-163.544 88.3364 L-162.028 89.6379 L-160.512 90.9394 L-158.996 92.2409 L-157.48 93.5424 L-155.964 94.8439 L-154.448 96.1454 L-152.932 97.447 L-151.416 98.7485 L-149.9 100.05 L-148.384 101.352 L-146.868 102.653 L-145.352 103.955 L-143.836 105.256 L-142.32 106.558 L-140.804 107.859 L-139.288 109.161 L-137.772 110.462 L-136.256 111.764 L-134.74 113.065 L-133.224 114.367 L-131.708 115.668 L-130.192 116.97 L-128.676 118.271 L-127.16 119.573 L-125.644 120.874 L-124.128 122.176 L-122.612 123.477 L-121.096 124.779 L-119.58 126.08 L-118.064 127.382 L-116.548 128.683 L-115.032 129.985 L-113.516 131.286 L-112 132.588 L-110.484 133.889 L-108.968 135.191 L-107.452 136.492 L-105.935 137.794 L-104.419 139.095 L-102.903 140.397 L-101.387 141.698 L-99.8714 143 L-98.3554 144.302 L-96.8394 145.603 L-95.3234 146.905 L-93.8073 148.206 L-92.2913 149.508 L-90.7753 150.809 L-89.2593 152.111 L-87.7433 153.412 L-86.2273 154.714 L-84.7113 156.015 L-83.1952 157.317 L-81.6792 158.618 L-80.1632 159.92 L-78.6472 161.221 L-77.1312 162.523 L-75.6151 163.824 L-74.0991 165.126 L-72.5831 166.427 L-71.0671 167.729 L-69.5511 169.03 L-68.0351 170.332 L-66.519 171.633 L-65.003 172.935 L-63.487 174.236 L-61.971 175.538 L-60.455 176.839 L-58.939 178.141 L-57.4229 179.442 L-55.9069 180.744 L-54.3909 182.045 L-52.8749 183.347 L-51.3589 184.648 L-49.8428 185.95 L-48.3268 187.252 L-46.8108 188.553 L-45.2948 189.855 L-43.7788 191.156 L-42.2628 192.458 L-40.7467 193.759 L-39.2307 195.061 L-37.7147 196.362 L-36.1987 197.664 L-34.6827 198.965 L-33.1667 200.267 L-31.6506 201.568 L-30.1346 202.87 L-28.6186 204.171 L-27.1026 205.473 L-25.5866 206.774 L-24.0706 208.076 L-22.5545 209.377 L-21.0385 210.679 L-19.5225 211.98 L-18.0065 213.282 L-16.4904 214.583 L-14.9744 215.885 L-13.4584 217.186 L-11.9424 218.488 L-10.4264 219.789 L-8.91038 221.091 L-7.39437 222.392 L-5.87835 223.694 L-4.36233 224.995 L-2.84632 226.297 L-1.3303 227.598 L0.18571 228.9 L1.70173 230.202 L2.21614 230.643 L6.74622 234.532 L7.7658 235.408 L8.44882 235.994 L6.74622 234.532 L6.24978 234.106 L4.73376 232.805 L3.21774 231.503 L2.21614 230.643 L-269.744 -2.83688 L-272.263 -5 L-272.697 -5.37272 L-273.384 -5.96245 L-275.451 -7.73673 L-279.252 -11 L-278.761 -10.5788 L-277.245 -9.27727 Z M12.3139 239.312 L12.5586 239.522 L13.8299 240.614 L14.6815 241.345 L27.9623 252.746 L28.99 253.629 L30.5061 254.93 L32.0221 256.232 L33.5381 257.533 L35.0541 258.835 L35.9112 259.571 L36.7304 260.274 L38.0861 261.438 L39.6022 262.739 L41.1182 264.041 L42.6342 265.342 L44.1502 266.644 L45.6662 267.945 L47.1823 269.247 L48.6983 270.548 L50.4144 272.022 L51.7303 273.151 L53.2463 274.453 L54.7623 275.755 L56.2784 277.056 L57.7944 278.358 L59.3104 279.659 L60.8264 280.961 L62.3424 282.262 L62.8365 282.686 L50.4144 272.022 L50.2143 271.85 L48.6983 270.548 L39.6022 262.739 L36.7304 260.274 L36.5701 260.136 L35.9112 259.571 L27.9623 252.746 L27.474 252.327 L25.958 251.026 L24.442 249.724 L22.926 248.423 L21.4099 247.121 L19.8939 245.82 L18.3779 244.518 L16.8619 243.217 L15.3459 241.915 L14.6815 241.345 L12.5586 239.522 L9.28181 236.709 L10.7978 238.011 L12.3139 239.312 Z M64.543 284.151 L68.6489 287.676 L69.9225 288.77 L70.7757 289.502 L74.4706 292.674 L75.9866 293.976 L77.1796 295 L78.3444 296 L79.0186 296.579 L79.5092 297 L80.5346 297.88 L82.0506 299.182 L83.0037 300 L83.0037 300 L82.0506 299.182 L79.5092 297 L78.3444 296 L77.5026 295.277 L77.1796 295 L74.4706 292.674 L72.9545 291.373 L71.4385 290.071 L70.7757 289.502 L68.6489 287.676 L68.4065 287.468 L66.8905 286.167 L65.3744 284.865 L64.543 284.151 L63.2019 283 L63.8584 283.564 L64.543 284.151 Z " />
<path stroke="rgb(0,0,0)" stroke-opacity="1" fill="rgb(255,255,255)" fill-opacity="1" d="M400 -176 L400 -177 L400 -178 L400 -179 L400 -180 L400 -181 L400 -182 L400 -183 L400 -184 L400 -185 L400 -186 L400 -187 L400 -188 L400 -189 L400 -190 L400 -191 L400 -192 L400 -193 L400 -194 L400 -195 L400 -196 L400 -197 L400 -198 L400 -199 L400 -200 L400 -201 L400 -202 L400 -203 L400 -204 L400 -205 L400 -206 L400 -207 L400 -208 L400 -209 L400 -210 L400 -211 L400 -212 L400 -213 L400 -214 L400 -215 L400 -216 L400 -217 L400 -218 L400 -219 L400 -220 L400 -221 L400 -222 L400 -223 L400 -224 L400 -225 L399 -225 L398 -225 L397 -225 L396 -225 L395 -225 L394 -225 L393 -225 L392 -225 L391 -225 L390 -225 L389 -225 L388 -225 L387 -225 L386 -225 L385 -225 L384 -225 L383 -225 L382 -225 L381 -225 L380 -225 L379 -225 L378 -225 L377 -225 L376 -225 L375 -225 L374 -225 L373 -225 L372 -225 L371 -225 L370 -225 L369 -225 L368 -225 L367 -225 L366 -225 L365 -225 L364 -225 L363 -225 L362 -225 L361 -225 L360 -225 L359 -225 L358 -225 L357 -225 L356 -225 L355 -225 L354 -225 L353 -225 L352 -225 L351 -225 L350 -225 L350 -224 L350 -223 L350 -222 L350 -221 L350 -220 L350 -219 L350 -218 L350 -217 L350 -216 L350 -215 L350 -214 L350 -213 L350 -212 L350 -211 L350 -210 L350 -209 L350 -208 L350 -207 L350 -206 L350 -205 L350 -204 L350 -203 L350 -202 L350 -201 L350 -200 L350 -199 L350 -198 L350 -197 L350 -196 L350 -195 L350 -194 L350 -193 L350 -192 L350 -191 L350 -190 L350 -189 L350 -188 L350 -187 L350 -186 L350 -185 L350 -184 L350 -183 L350 -182 L350 -181 L350 -180 L350 -179 L350 -178 L350 -177 L350 -176 L350 -175 L351 -175 L352 -175 L353 -175 L354 -175 L355 -175 L356 -175 L357 -175 L358 -175 L359 -175 L360 -175 L361 -175 L362 -175 L363 -175 L364 -175 L365 -175 L366 -175 L367 -175 L368 -175 L369 -175 L370 -175 L371 -175 L372 -175 L373 -175 L374 -175 L375 -175 L376 -175 L377 -175 L378 -175 L379 -175 L380 -175 L381 -175 L382 -175 L383 -175 L384 -175 L385 -175 L386 -175 L387 -175 L388 -175 L389 -175 L390 -175 L391 -175 L392 -175 L393 -175 L394 -175 L395 -175 L396 -175 L397 -175 L398 -175 L399 -175 L400 -175 L400 -176 Z " />
<path stroke="rgb(0,0,0)" stroke-opacity="1" fill="rgb(255,255,255)" fill-opacity="1" d="M400 -76 L400 -77 L400 -78 L400 -79 L400 -80 L400 -81 L400 -82 L400 -83 L400 -84 L400 -85 L400 -86 L400 -87 L400 -88 L400 -89 L400 -90 L400 -91 L400 -92 L400 -93 L400 -94 L400 -95 L400 -96 L400 -97 L400 -98 L400 -99 L400 -100 L400 -101 L400 -102 L400 -103 L400 -104 L400 -105 L400 -106 L400 -107 L400 -108 L400 -109 L400 -110 L400 -111 L400 -112 L400 -113 L400 -114 L400 -115 L400 -116 L400 -117 L400 -118 L400 -119 L400 -120 L400 -121 L400 -122 L400 -123 L400 -124 L400 -125 L399 -125 L398 -125 L397 -125 L396 -125 L395 -125 L394 -125 L393 -125 L392 -125 L391 -125 L390 -125 L389 -125 L388 -125 L387 -125 L386 -125 L385 -125 L384 -125 L383 -125 L382 -125 L381 -125 L380 -125 L379 -125 L378 -125 L377 -125 L376 -125 L375 -125 L374 -125 L373 -125 L372 -125 L371 -125 L370 -125 L369 -125 L368 -125 L367 -125 L366 -125 L365 -125 L364 -125 L363 -125 L362 -125 L361 -125 L360 -125 L359 -125 L358 -125 L357 -125 L356 -125 L355 -125 L354 -125 L353 -125 L352 -125 L351 -125 L350 -125 L350 -124 L350 -123 L350 -122 L350 -121 L350 -120 L350 -119 L350 -118 L350 -117 L350 -116 L350 -115 L350 -114 L350 -113 L350 -112 L350 -111 L350 -110 L350 -109 L350 -108 L350 -107 L350 -106 L350 -105 L350 -104 L350 -103 L350 -102 L350 -101 L350 -100 L350 -99 L350 -98 L350 -97 L350 -96 L350 -95 L350 -94 L350 -93 L350 -92 L350 -91 L350 -90 L350 -89 L350 -88 L350 -87 L350 -86 L350 -85 L350 -84 L350 -83 L350 -82 L350 -81 L350 -80 L350 -79 L350 -78 L350 -77 L350 -76 L350 -75 L351 -75 L352 -75 L353 -75 L354 -75 L355 -75 L356 -75 L357 -75 L358 -75 L359 -75 L360 -75 L361 -75 L362 -75 L363 -75 L364 -75 L365 -75 L366 -75 L367 -75 L368 -75 L369 -75 L370 -75 L371 -75 L372 -75 L373 -75 L374 -75 L375 -75 L376 -75 L377 -75 L378 -75 L379 -75 L380 -75 L381 -75 L382 -75 L383 -75 L384 -75 L385 -75 L386 -75 L387 -75 L388 -75 L389 -75 L390 -75 L391 -75 L392 -75 L393 -75 L394 -75 L395 -75 L396 -75 L397 -75 L398 -75 L399 -75 L400 -75 L400 -76 Z " />
<path stroke="rgb(0,0,0)" stroke-opacity="1" fill="rgb(255,255,255)" fill-opacity="1" d="M383 25 L384 25 L385 25 L386 25 L387 25 L388 25 L389 25 L390 25 L391 25 L392 25 L393 25 L394 25 L395 25 L396 25 L397 25 L398 25 L399 25 L400 25 L400 24 L400 23 L400 22 L400 21 L400 20 L400 19 L400 18 L400 17 L400 16 L400 15 L400 14 L400 13 L400 12 L400 11 L400 10 L400 9 L400 8 L400 7 L400 6 L400 5 L400 3.99999 L400 3 L400 2 L400 1 L400 0 L400 -1 L400 -2 L400 -3 L400 -4 L400 -5 L400 -6 L400 -7 L400 -7.99999 L400 -9 L400 -10 L400 -11 L400 -12 L400 -13 L400 -14 L400 -15 L400 -16 L400 -17 L400 -18 L400 -19 L400 -20 L400 -21 L400 -22 L400 -23 L400 -24 L400 -25 L399 -25 L398 -25 L397 -25 L396 -25 L395 -25 L394 -25 L393 -25 L392 -25 L391 -25 L390 -25 L389 -25 L388 -25 L387 -25 L386 -25 L385 -25 L384 -25 L383 -25 L382 -25 L381 -25 L380 -25 L379 -25 L378 -25 L377 -25 L376 -25 L375 -25 L374 -25 L373 -25 L372 -25 L371 -25 L370 -25 L369 -25 L368 -25 L367 -25 L366 -25 L365 -25 L364 -25 L363 -25 L362 -25 L361 -25 L360 -25 L359 -25 L358 -25 L357 -25 L356 -25 L355 -25 L354 -25 L353 -25 L352 -25 L351 -25 L350 -25 L350 -24 L350 -23 L350 -22 L350 -21 L350 -20 L350 -19 L350 -18 L350 -17 L350 -16 L350 -15 L350 -14 L350 -13 L350 -12 L350 -11 L350 -10 L350 -9 L350 -8 L350 -7 L350 -6 L350 -5 L350 -3.99999 L350 -3 L350 -2 L350 -1 L350 0 L350 1 L350 2 L350 3 L350 4 L350 5 L350 6 L350 7 L350 7.99999 L350 9 L350 10 L350 11 L350 12 L350 13 L350 14 L350 15 L350 16 L350 17 L350 18 L350 19 L350 20 L350 21 L350 22 L350 23 L350 24 L350 25 L351 25 L352 25 L353 25 L354 25 L355 25 L356 25 L357 25 L358 25 L359 25 L360 25 L361 25 L362 25 L363 25 L364 25 L365 25 L366 25 L367 25 L368 25 L369 25 L370 25 L371 25 L372 25 L373 25 L374 25 L375 25 L376 25 L377 25 L378 25 L379 25 L380 25 L381 25 L382 25 L383 25 Z " />
<path stroke="rgb(0,0,0)" stroke-opacity="1" fill="rgb(255,255,255)" fill-opacity="1" d="M383 125 L384 125 L385 125 L386 125 L387 125 L388 125 L389 125 L390 125 L391 125 L392 125 L393 125 L394 125 L395 125 L396 125 L397 125 L398 125 L399 125 L400 125 L400 124 L400 123 L400 122 L400 121 L400 120 L400 119 L400 118 L400 117 L400 116 L400 115 L400 114 L400 113 L400 112 L400 111 L400 110 L400 109 L400 108 L400 107 L400 106 L400 105 L400 104 L400 103 L400 102 L400 101 L400 100 L400 99 L400 98 L400 97 L400 96 L400 95 L400 94 L400 93 L400 92 L400 91 L400 90 L400 89 L400 88 L400 87 L400 86 L400 85 L400 84 L400 83 L400 82 L400 81 L400 80 L400 79 L400 78 L400 77 L400 76 L400 75 L399 75 L398 75 L397 75 L396 75 L395 75 L394 75 L393 75 L392 75 L391 75 L390 75 L389 75 L388 75 L387 75 L386 75 L385 75 L384 75 L383 75 L382 75 L381 75 L380 75 L379 75 L378 75 L377 75 L376 75 L375 75 L374 75 L373 75 L372 75 L371 75 L370 75 L369 75 L368 75 L367 75 L366 75 L365 75 L364 75 L363 75 L362 75 L361 75 L360 75 L359 75 L358 75 L357 75 L356 75 L355 75 L354 75 L353 75 L352 75 L351 75 L350 75 L350 76 L350 77 L350 78 L350 79 L350 80 L350 81 L350 82 L350 83 L350 84 L350 85 L350 86 L350 87 L350 88 L350 89 L350 90 L350 91 L350 92 L350 93 L350 94 L350 95 L350 96 L350 97 L350 98 L350 99 L350 100 L350 101 L350 102 L350 103 L350 104 L350 105 L350 106 L350 107 L350 108 L350 109 L350 110 L350 111 L350 112 L350 113 L350 114 L350 115 L350 116 L350 117 L350 118 L350 119 L350 120 L350 121 L350 122 L350 123 L350 124 L350 125 L351 125 L352 125 L353 125 L354 125 L355 125 L356 125 L357 125 L358 125 L359 125 L360 125 L361 125 L362 125 L363 125 L364 125 L365 125 L366 125 L367 125 L368 125 L369 125 L370 125 L371 125 L372 125 L373 125 L374 125 L375 125 L376 125 L377 125 L378 125 L379 125 L380 125 L381 125 L382 125 L383 125 Z " />
<path stroke="rgb(0,0,0)" stroke-opacity="1" fill="rgb(255,255,255)" fill-opacity="1" d="M383 225 L384 225 L385 225 L386 225 L387 225 L388 225 L389 225 L390 225 L391 225 L392 225 L393 225 L394 225 L395 225 L396 225 L397 225 L398 225 L399 225 L400 225 L400 224 L400 223 L400 222 L400 221 L400 220 L400 219 L400 218 L400 217 L400 216 L400 215 L400 214 L400 213 L400 212 L400 211 L400 210 L400 209 L400 208 L400 207 L400 206 L400 205 L400 204 L400 203 L400 202 L400 201 L400 200 L400 199 L400 198 L400 197 L400 196 L400 195 L400 194 L400 193 L400 192 L400 191 L400 190 L400 189 L400 188 L400 187 L400 186 L400 185 L400 184 L400 183 L400 182 L400 181 L400 180 L400 179 L400 178 L400 177 L400 176 L400 175 L399 175 L398 175 L397 175 L396 175 L395 175 L394 175 L393 175 L392 175 L391 175 L390 175 L389 175 L388 175 L387 175 L386 175 L385 175 L384 175 L383 175 L382 175 L381 175 L380 175 L379 175 L378 175 L377 175 L376 175 L375 175 L374 175 L373 175 L372 175 L371 175 L370 175 L369 175 L368 175 L367 175 L366 175 L365 175 L364 175 L363 175 L362 175 L361 175 L360 175 L359 175 L358 175 L357 175 L356 175 L355 175 L354 175 L353 175 L352 175 L351 175 L350 175 L350 176 L350 177 L350 178 L350 179 L350 180 L350 181 L350 182 L350 183 L350 184 L350 185 L350 186 L350 187 L350 188 L350 189 L350 190 L350 191 L350 192 L350 193 L350 194 L350 195 L350 196 L350 197 L350 198 L350 199 L350 200 L350 201 L350 202 L350 203 L350 204 L350 205 L350 206 L350 207 L350 208 L350 209 L350 210 L350 211 L350 212 L350 213 L350 214 L350 215 L350 216 L350 217 L350 218 L350 219 L350 220 L350 221 L350 222 L350 223 L350 224 L350 225 L351 225 L352 225 L353 225 L354 225 L355 225 L356 225 L357 225 L358 225 L359 225 L360 225 L361 225 L362 225 L363 225 L364 225 L365 225 L366 225 L367 225 L368 225 L369 225 L370 225 L371 225 L372 225 L373 225 L374 225 L375 225 L376 225 L377 225 L378 225 L379 225 L380 225 L381 225 L382 225 L383 225 Z " />
<path stroke="rgb(0,0,0)" stroke-opacity="1" fill="rgb(255,255,255)" fill-opacity="1" d="M400 324 L400 323 L400 322 L400 321 L400 320 L400 319 L400 318 L400 317 L400 316 L400 315 L400 314 L400 313 L400 312 L400 311 L400 310 L400 309 L400 308 L400 307 L400 306 L400 305 L400 304 L400 303 L400 302 L400 301 L400 300 L400 299 L400 298 L400 297 L400 296 L400 295 L400 294 L400 293 L400 292 L400 291 L400 290 L400 289 L400 288 L400 287 L400 286 L400 285 L400 284 L400 283 L400 282 L400 281 L400 280 L400 279 L400 278 L400 277 L400 276 L400 275 L399 275 L398 275 L397 275 L396 275 L395 275 L394 275 L393 275 L392 275 L391 275 L390 275 L389 275 L388 275 L387 275 L386 275 L385 275 L384 275 L383 275 L382 275 L381 275 L380 275 L379 275 L378 275 L377 275 L376 275 L375 275 L374 275 L373 275 L372 275 L371 275 L370 275 L369 275 L368 275 L367 275 L366 275 L365 275 L364 275 L363 275 L362 275 L361 275 L360 275 L359 275 L358 275 L357 275 L356 275 L355 275 L354 275 L353 275 L352 275 L351 275 L350 275 L350 276 L350 277 L350 278 L350 279 L350 280 L350 281 L350 282 L350 283 L350 284 L350 285 L350 286 L350 287 L350 288 L350 289 L350 290 L350 291 L350 292 L350 293 L350 294 L350 295 L350 296 L350 297 L350 298 L350 299 L350 300 L350 301 L350 302 L350 303 L350 304 L350 305 L350 306 L350 307 L350 308 L350 309 L350 310 L350 311 L350 312 L350 313 L350 314 L350 315 L350 316 L350 317 L350 318 L350 319 L350 320 L350 321 L350 322 L350 323 L350 324 L350 325 L351 325 L352 325 L353 325 L354 325 L355 325 L356 325 L357 325 L358 325 L359 325 L360 325 L361 325 L362 325 L363 325 L364 325 L365 325 L366 325 L367 325 L368 325 L369 325 L370 325 L371 325 L372 325 L373 325 L374 325 L375 325 L376 325 L377 325 L378 325 L379 325 L380 325 L381 325 L382 325 L383 325 L384 325 L385 325 L386 325 L387 325 L388 325 L389 325 L390 325 L391 325 L392 325 L393 325 L394 325 L395 325 L396 325 L397 325 L398 325 L399 325 L400 325 L400 324 Z " />
<path stroke="rgb(0,0,0)" stroke-opacity="1" fill="rgb(255,255,255)" fill-opacity="1" d="M132 200 L134 200 L136 200 L138 200 L140 200 L142 200 L144 200 L146 200 L148 200 L150 200 L152 200 L154 200 L156 200 L158 200 L160 200 L162 200 L164 200 L166 200 L168 200 L170 200 L172 200 L174 200 L176 200 L178 200 L180 200 L182 200 L184 200 L186 200 L188 200 L190 200 L192 200 L194 200 L196 200 L198 200 L200 200 L200 198 L200 196 L200 194 L200 192 L200 190 L200 188 L200 186 L200 184 L200 182 L200 180 L200 178 L200 176 L200 174 L200 172 L200 170 L200 168 L200 166 L200 164 L200 162 L200 160 L200 158 L200 156 L200 154 L200 152 L200 150 L200 148 L200 146 L200 144 L200 142 L200 140 L200 138 L200 136 L200 134 L200 132 L200 130 L200 128 L200 126 L200 124 L200 122 L200 120 L200 118 L200 116 L200 114 L200 112 L200 110 L200 108 L200 106 L200 104 L200 102 L200 100 L200 98 L200 96 L200 94 L200 92 L200 90 L200 88 L200 86 L200 84 L200 82 L200 80 L200 78 L200 76 L200 74 L200 72 L200 70 L200 68 L200 66 L200 64 L200 62 L200 60 L200 58 L200 56 L200 54 L200 52 L200 50 L200 48 L200 46 L200 44 L200 42 L200 40 L200 38 L200 36 L200 34 L200 32 L200 30 L200 28 L200 26 L200 24 L200 22 L200 20 L200 18 L200 16 L200 14 L200 12 L200 10 L200 8 L200 6 L200 4 L200 2 L200 0 L198 0 L196 0 L194 0 L192 0 L190 0 L188 0 L186 0 L184 0 L182 0 L180 0 L178 0 L176 0 L174 0 L172 0 L170 0 L168 0 L166 0 L164 0 L162 0 L160 0 L158 0 L156 0 L154 0 L152 0 L150 0 L148 0 L146 0 L144 0 L142 0 L140 0 L138 0 L136 0 L134 0 L132 0 L130 0 L128 0 L126 0 L124 0 L122 0 L120 0 L118 0 L116 0 L114 0 L112 0 L110 0 L108 0 L106 0 L104 0 L102 0 L100 0 L100 -2 L100 -4 L100 -6 L100 -8 L100 -10 L100 -12 L100 -14 L100 -16 L100 -18 L100 -20 L100 -22 L100 -24 L100 -26 L100 -28 L100 -30 L100 -32 L100 -34 L100 -36 L100 -38 L100 -40 L100 -42 L100 -44 L100 -46 L100 -48 L100 -50 L100 -52 L100 -54 L100 -56 L100 -58 L100 -60 L100 -62 L100 -64 L100 -66 L100 -68 L100 -70 L100 -72 L100 -74 L100 -76 L100 -78 L100 -80 L100 -82 L100 -84 L100 -86 L100 -88 L100 -90 L100 -92 L100 -94 L100 -96 L100 -98 L100 -100 L98 -100 L96 -100 L94 -100 L92 -100 L90 -100 L88 -100 L86 -100 L84 -100 L82 -100 L80 -100 L78 -100 L76 -100 L74 -100 L72 -100 L70 -100 L68 -100 L66 -100 L64 -100 L62 -100 L60 -100 L58 -100 L56 -100 L54 -100 L52 -100 L50 -100 L48 -100 L46 -100 L44 -100 L42 -100 L40 -100 L38 -100 L36 -100 L34 -100 L32 -100 L30 -100 L28 -100 L26 -100 L24 -100 L22 -100 L20 -100 L18 -100 L16 -100 L14 -100 L12 -100 L10 -100 L8 -100 L6 -100 L4 -100 L2 -100 L0 -100 L-2 -100 L-4 -100 L-6 -100 L-8 -100 L-10 -100 L-12 -100 L-14 -100 L-16 -100 L-18 -100 L-20 -100 L-22 -100 L-24 -100 L-26 -100 L-28 -100 L-30 -100 L-32 -100 L-34 -100 L-36 -100 L-38 -100 L-40 -100 L-42 -100 L-44 -100 L-46 -100 L-48 -100 L-50 -100 L-52 -100 L-54 -100 L-56 -100 L-58 -100 L-60 -100 L-62 -100 L-64 -100 L-66 -100 L-68 -100 L-70 -100 L-72 -100 L-74 -100 L-76 -100 L-78 -100 L-80 -100 L-82 -100 L-84 -100 L-86 -100 L-88 -100 L-90 -100 L-92 -100 L-94 -100 L-96 -100 L-98 -100 L-100 -100 L-100 -98 L-100 -96 L-100 -94 L-100 -92 L-100 -90 L-100 -88 L-100 -86 L-100 -84 L-100 -82 L-100 -80 L-100 -78 L-100 -76 L-100 -74 L-100 -72 L-100 -70 L-100 -68 L-100 -66 L-100 -64 L-100 -62 L-100 -60 L-100 -58 L-100 -56 L-100 -54 L-100 -52 L-100 -50 L-100 -48 L-100 -46 L-100 -44 L-100 -42 L-100 -40 L-100 -38 L-100 -36 L-100 -34 L-100 -32 L-100 -30 L-100 -28 L-100 -26 L-100 -24 L-100 -22 L-100 -20 L-100 -18 L-100 -16 L-100 -14 L-100 -12 L-100 -10 L-100 -8 L-100 -6 L-100 -4 L-100 -2 L-100 0 L-100 2 L-100 4 L-100 6 L-100 8 L-100 10 L-100 12 L-100 14 L-100 16 L-100 18 L-100 20 L-100 22 L-100 24 L-100 26 L-100 28 L-100 30 L-100 32 L-100 34 L-100 36 L-100 38 L-100 40 L-100 42 L-100 44 L-100 46 L-100 48 L-100 50 L-100 52 L-100 54 L-100 56 L-100 58 L-100 60 L-100 62 L-100 64 L-100 66 L-100 68 L-100 70 L-100 72 L-100 74 L-100 76 L-100 78 L-100 80 L-100 82 L-100 84 L-100 86 L-100 88 L-100 90 L-100 92 L-100 94 L-100 96 L-100 98 L-100 100 L-98 100 L-96 100 L-94 100 L-92 100 L-90 100 L-88 100 L-86 100 L-84 100 L-82 100 L-80 100 L-78 100 L-76 100 L-74 100 L-72 100 L-70 100 L-68 100 L-66 100 L-64 100 L-62 100 L-60 100 L-58 100 L-56 100 L-54 100 L-52 100 L-50 100 L-48 100 L-46 100 L-44 100 L-42 100 L-40 100 L-38 100 L-36 100 L-34 100 L-32 100 L-30 100 L-28 100 L-26 100 L-24 100 L-22 100 L-20 100 L-18 100 L-16 100 L-14 100 L-12 100 L-10 100 L-8 100 L-6 100 L-4 100 L-2 100 L0 100 L0 102 L0 104 L0 106 L0 108 L0 110 L0 112 L0 114 L0 116 L0 118 L0 120 L0 122 L0 124 L0 126 L0 128 L0 130 L0 132 L0 134 L0 136 L0 138 L0 140 L0 142 L0 144 L0 146 L0 148 L0 150 L0 152 L0 154 L0 156 L0 158 L0 160 L0 162 L0 164 L0 166 L0 168 L0 170 L0 172 L0 174 L0 176 L0 178 L0 180 L0 182 L0 184 L0 186 L0 188 L0 190 L0 192 L0 194 L0 196 L0 198 L0 200 L2 200 L4 200 L6 200 L8 200 L10 200 L12 200 L14 200 L16 200 L18 200 L20 200 L22 200 L24 200 L26 200 L28 200 L30 200 L32 200 L34 200 L36 200 L38 200 L40 200 L42 200 L44 200 L46 200 L48 200 L50 200 L52 200 L54 200 L56 200 L58 200 L60 200 L62 200 L64 200 L66 200 L68 200 L70 200 L72 200 L74 200 L76 200 L78 200 L80 200 L82 200 L84 200 L86 200 L88 200 L90 200 L92 200 L94 200 L96 200 L98 200 L100 200 L102 200 L104 200 L106 200 L108 200 L110 200 L112 200 L114 200 L116 200 L118 200 L120 200 L122 200 L124 200 L126 200 L128 200 L130 200 L132 200 Z " />
<path stroke="rgb(0,0,0)" stroke-opacity="1" fill="rgb(255,255,255)" fill-opacity="1" d="M82.0506 299.182 L80.5346 297.88 L79.5092 297 L77.1796 295 L75.9866 293.976 L74.4706 292.674 L70.7757 289.502 L69.9225 288.77 L68.6489 287.676 L64.543 284.151 L63.8584 283.564 L63.2019 283 L62.8365 282.686 L62.3424 282.262 L60.8264 280.961 L59.3104 279.659 L57.7944 278.358 L56.2784 277.056 L54.7623 275.755 L53.2463 274.453 L51.7303 273.151 L50.4144 272.022 L48.6983 270.548 L47.1823 269.247 L45.6662 267.945 L44.1502 266.644 L42.6342 265.342 L41.1182 264.041 L39.6022 262.739 L38.0861 261.438 L36.7304 260.274 L35.9112 259.571 L35.0541 258.835 L33.5381 257.533 L32.0221 256.232 L30.5061 254.93 L28.99 253.629 L27.9623 252.746 L14.6815 241.345 L13.8299 240.614 L12.5586 239.522 L12.3139 239.312 L10.7978 238.011 L9.28181 236.709 L8.44882 235.994 L7.7658 235.408 L6.74622 234.532 L2.21614 230.643 L1.70173 230.202 L0.18571 228.9 L-1.3303 227.598 L-2.84632 226.297 L-4.36233 224.995 L-5.87835 223.694 L-7.39437 222.392 L-8.91038 221.091 L-10.4264 219.789 L-11.9424 218.488 L-13.4584 217.186 L-14.9744 215.885 L-16.4905 214.583 L-18.0065 213.282 L-19.5225 211.98 L-21.0385 210.679 L-22.5545 209.377 L-24.0706 208.076 L-25.5866 206.774 L-27.1026 205.473 L-28.6186 204.171 L-30.1346 202.87 L-31.6506 201.568 L-33.1667 200.267 L-34.6827 198.965 L-36.1987 197.664 L-37.7147 196.362 L-39.2307 195.061 L-40.7467 193.759 L-42.2628 192.458 L-43.7788 191.156 L-45.2948 189.855 L-46.8108 188.553 L-48.3268 187.252 L-49.8428 185.95 L-51.3589 184.648 L-52.8749 183.347 L-54.3909 182.045 L-55.9069 180.744 L-57.4229 179.442 L-58.939 178.141 L-60.455 176.839 L-61.971 175.538 L-63.487 174.236 L-65.003 172.935 L-66.519 171.633 L-68.0351 170.332 L-69.5511 169.03 L-71.0671 167.729 L-72.5831 166.427 L-74.0991 165.126 L-75.6151 163.824 L-77.1312 162.523 L-78.6472 161.221 L-80.1632 159.92 L-81.6792 158.618 L-83.1952 157.317 L-84.7113 156.015 L-86.2273 154.714 L-87.7433 153.412 L-89.2593 152.111 L-90.7753 150.809 L-92.2913 149.508 L-93.8073 148.206 L-95.3234 146.905 L-96.8394 145.603 L-98.3554 144.302 L-99.8714 143 L-101.387 141.698 L-102.903 140.397 L-104.419 139.095 L-105.935 137.794 L-107.452 136.492 L-108.968 135.191 L-110.484 133.889 L-112 132.588 L-113.516 131.286 L-115.032 129.985 L-116.548 128.683 L-118.064 127.382 L-119.58 126.08 L-121.096 124.779 L-122.612 123.477 L-124.128 122.176 L-125.644 120.874 L-127.16 119.573 L-128.676 118.271 L-130.192 116.97 L-131.708 115.668 L-133.224 114.367 L-134.74 113.065 L-136.256 111.764 L-137.772 110.462 L-139.288 109.161 L-140.804 107.859 L-142.32 106.558 L-143.836 105.256 L-145.352 103.955 L-146.868 102.653 L-148.384 101.352 L-149.9 100.05 L-151.416 98.7485 L-152.932 97.447 L-154.448 96.1454 L-155.964 94.8439 L-157.48 93.5424 L-158.996 92.2409 L-160.512 90.9394 L-162.028 89.6379 L-163.544 88.3364 L-165.06 87.0348 L-166.576 85.7333 L-168.092 84.4318 L-169.608 83.1303 L-171.124 81.8288 L-172.64 80.5273 L-174.156 79.2258 L-175.672 77.9242 L-177.188 76.6227 L-178.704 75.3212 L-180.22 74.0197 L-181.736 72.7182 L-183.252 71.4167 L-184.768 70.1151 L-186.284 68.8136 L-187.8 67.5121 L-189.316 66.2106 L-190.832 64.9091 L-192.348 63.6076 L-193.864 62.3061 L-195.381 61.0045 L-196.897 59.703 L-198.413 58.4015 L-199.929 57.1 L-201.445 55.7985 L-202.961 54.497 L-204.477 53.1955 L-205.993 51.8939 L-207.509 50.5924 L-209.025 49.2909 L-210.541 47.9894 L-212.057 46.6879 L-213.573 45.3864 L-215.089 44.0848 L-216.605 42.7833 L-218.121 41.4818 L-219.637 40.1803 L-221.153 38.8788 L-222.669 37.5773 L-224.185 36.2758 L-225.701 34.9742 L-227.217 33.6727 L-228.733 32.3712 L-230.249 31.0697 L-231.765 29.7682 L-233.281 28.4667 L-234.797 27.1652 L-236.313 25.8636 L-237.829 24.5621 L-239.345 23.2606 L-240.861 21.9591 L-242.377 20.6576 L-243.893 19.3561 L-245.409 18.0545 L-246.925 16.753 L-248.441 15.4515 L-249.957 14.15 L-251.473 12.8485 L-252.989 11.547 L-254.505 10.2454 L-256.021 8.94393 L-257.537 7.64242 L-259.053 6.3409 L-260.569 5.03939 L-262.085 3.73787 L-263.601 2.43636 L-265.117 1.13484 L-266.633 -0.16666 L-268.149 -1.46818 L-269.665 -2.76969 L-269.744 -2.83688 L-271.181 -4.07121 L-272.263 -5 L-273.384 -5.96245 L-274.213 -6.67424 L-275.451 -7.73673 L-275.729 -7.97575 L-277.245 -9.27727 L-278.761 -10.5788 L-279.252 -11 L-279.617 -11.3133 L-280.277 -11.8803 L-280.417 -12 L-300 -28.8123 L-299.986 -28.8 L-298.47 -27.4985 L-296.954 -26.197 L-295.438 -24.8955 L-293.922 -23.5939 L-292.406 -22.2924 L-290.89 -20.9909 L-289.374 -19.6894 L-287.858 -18.3879 L-286.342 -17.0864 L-284.826 -15.7848 L-283.31 -14.4833 L-281.793 -13.1818 L-280.417 -12 L-279.617 -11.3133 L-279.252 -11 L-275.451 -7.73673 L-273.384 -5.96245 L-272.697 -5.37272 L-272.263 -5 L-269.744 -2.83688 L2.21614 230.643 L3.21774 231.503 L4.73376 232.805 L6.24978 234.106 L6.74622 234.532 L8.44882 235.994 L9.28181 236.709 L12.5586 239.522 L14.6815 241.345 L15.3459 241.915 L16.8619 243.217 L18.3779 244.518 L19.8939 245.82 L21.4099 247.121 L22.926 248.423 L24.442 249.724 L25.958 251.026 L27.474 252.327 L27.9623 252.746 L35.9112 259.571 L36.5701 260.136 L36.7304 260.274 L39.6022 262.739 L48.6983 270.548 L50.2143 271.85 L50.4144 272.022 L62.8365 282.686 L63.2019 283 L64.543 284.151 L65.3744 284.865 L66.8905 286.167 L68.4065 287.468 L68.6489 287.676 L70.7757 289.502 L71.4385 290.071 L72.9545 291.373 L74.4706 292.674 L77.1796 295 L77.5026 295.277 L79.0186 296.579 L79.5092 297 L82.0506 299.182 L83.0037 300 L83.0037 300 L82.0506 299.182 Z " />
</g>
</g>
</svg>
